<svg width="95" height="95" viewBox="0 0 95 95" fill="none" xmlns="http://www.w3.org/2000/svg">
<path d="M47.4998 11.8805C46.2632 11.8805 45.2607 12.8829 45.2607 14.1195V15.5589C45.2607 16.7954 46.2632 17.7979 47.4998 17.7979C48.7363 17.7979 49.7388 16.7954 49.7388 15.5589V14.1195C49.7388 12.8826 48.7363 11.8805 47.4998 11.8805Z" fill="white"/>
<path d="M47.4998 58.5297C46.2632 58.5297 45.2607 59.5321 45.2607 60.7687V63.4635C45.2607 64.7001 46.2632 65.7025 47.4998 65.7025C48.7363 65.7025 49.7388 64.7001 49.7388 63.4635V60.7687C49.7388 59.5321 48.7363 58.5297 47.4998 58.5297Z" fill="white"/>
<path d="M47.4998 46.5536C46.2632 46.5536 45.2607 47.556 45.2607 48.7926V51.4874C45.2607 52.724 46.2632 53.7264 47.4998 53.7264C48.7363 53.7264 49.7388 52.724 49.7388 51.4874V48.7926C49.7388 47.556 48.7363 46.5536 47.4998 46.5536Z" fill="white"/>
<path d="M47.4998 22.6012C46.2632 22.6012 45.2607 23.6036 45.2607 24.8402V27.535C45.2607 28.7716 46.2632 29.774 47.4998 29.774C48.7363 29.774 49.7388 28.7716 49.7388 27.535V24.8402C49.7388 23.6036 48.7363 22.6012 47.4998 22.6012Z" fill="white"/>
<path d="M47.4998 34.5776C46.2632 34.5776 45.2607 35.5801 45.2607 36.8166V39.5111C45.2607 40.7477 46.2632 41.7501 47.4998 41.7501C48.7363 41.7501 49.7388 40.7477 49.7388 39.5111V36.8166C49.7388 35.5798 48.7363 34.5776 47.4998 34.5776Z" fill="white"/>
<path d="M47.4998 70.5062C46.2632 70.5062 45.2607 71.5087 45.2607 72.7452V74.1846C45.2607 75.4212 46.2632 76.4236 47.4998 76.4236C48.7363 76.4236 49.7388 75.4212 49.7388 74.1846V72.7452C49.7388 71.5087 48.7363 70.5062 47.4998 70.5062Z" fill="white"/>
<path d="M85.7229 65.525C78.4538 65.525 72.5402 57.162 72.5402 46.882C72.5402 36.6021 78.4538 28.2387 85.7229 28.2387C86.8808 28.2387 87.9482 27.6131 88.514 26.6027C89.0795 25.5922 89.0549 24.3553 88.4497 23.3682L79.7908 9.24872C79.2787 8.41389 78.4125 7.85925 77.4395 7.74442C76.4665 7.62863 75.4954 7.9664 74.8023 8.6589C71.7911 11.67 66.8922 11.6694 63.8813 8.6589C62.4228 7.20066 61.6196 5.26104 61.6193 3.19827C61.619 1.43201 60.187 0 58.4207 0H36.5788C34.8126 0 33.3806 1.43201 33.3802 3.19827C33.3799 5.26104 32.5764 7.20066 31.1182 8.6589C28.1077 11.67 23.2081 11.6694 20.1972 8.6589C19.5041 7.9664 18.5311 7.62863 17.56 7.74442C16.5873 7.85925 15.7208 8.41389 15.2087 9.24872L6.55015 23.3682C5.94466 24.3553 5.92003 25.5922 6.48586 26.6027C7.05169 27.6131 8.11906 28.2387 9.27695 28.2387C16.5461 28.2387 22.4596 36.6021 22.4596 46.882C22.4596 57.162 16.5461 65.525 9.27695 65.525C8.18623 65.525 7.17068 66.0809 6.58278 66.9996C5.99455 67.9182 5.91555 69.0732 6.37263 70.0638L11.8329 81.896C12.4282 83.1857 13.8026 83.93 15.2071 83.7195C15.4339 83.6863 38.0153 80.4925 44.4493 93.2421C44.9882 94.3101 46.078 94.9882 47.2739 94.9997C47.2842 94.9997 47.2944 94.9997 47.305 94.9997C48.4891 94.9997 49.5776 94.3449 50.1322 93.2971C57.0485 80.2257 79.6485 82.7923 79.8759 82.8198C81.219 82.9839 82.5189 82.285 83.1237 81.0749L88.584 70.1537C89.0798 69.1621 89.0267 67.9847 88.4439 67.0418C87.8612 66.0992 86.8315 65.525 85.7229 65.525ZM78.37 76.2783C72.3576 75.9275 56.127 76.0237 47.3312 86.1409C40.563 78.3513 28.9927 76.9372 21.4805 76.9372C19.5681 76.9372 17.9192 77.0291 16.6791 77.1304L13.9514 71.2195C17.5411 70.1147 20.805 67.7317 23.4192 64.2459C26.9258 59.5705 28.8568 53.4043 28.8568 46.8824C28.8568 40.3604 26.9258 34.1942 23.4192 29.5188C20.9281 26.1974 17.8482 23.8771 14.4577 22.71L18.8398 15.5643C24.2048 18.5198 31.0987 17.7253 35.6416 13.1827C37.5374 11.2869 38.8277 8.94677 39.4153 6.39718H55.5839C56.1715 8.94677 57.4618 11.2869 59.3576 13.1827C63.9008 17.7256 70.7944 18.5198 76.1594 15.5643L80.5415 22.71C77.151 23.8771 74.0711 26.1974 71.5803 29.5185C68.0737 34.1939 66.1427 40.3604 66.1427 46.882C66.1427 53.404 68.0737 59.5702 71.5803 64.2456C74.1632 67.6895 77.3797 70.0568 80.9186 71.1788L78.37 76.2783Z" fill="white"/>
</svg>
