<svg width="95" height="95" viewBox="0 0 95 95" fill="none" xmlns="http://www.w3.org/2000/svg">
<path d="M47.5002 95C47.5002 95 86.3403 77.9297 86.3403 53.4375C86.3403 28.9453 86.3403 11.875 86.3403 11.875C86.3403 11.875 83.9921 12.2104 80.3196 12.2104C72.1913 12.2104 57.5553 10.5657 47.5002 0C37.4452 10.5657 22.8121 12.2104 14.6777 12.2104C11.0053 12.2104 8.66016 11.875 8.66016 11.875C8.66016 11.875 8.66016 28.9453 8.66016 53.4375C8.66016 77.9297 47.5002 95 47.5002 95ZM14.5977 18.1479C14.6244 18.1479 14.6512 18.1479 14.6808 18.1479C22.5034 18.1479 36.3587 16.7258 47.5033 7.99784C58.648 16.726 72.5002 18.1479 80.3258 18.1479C80.3526 18.1479 80.3793 18.1479 80.409 18.1479V53.4375C80.409 69.0621 58.5144 83.0389 47.5004 88.4479C36.4775 83.0568 14.5978 69.1125 14.5978 53.4375V18.1479H14.5977Z" fill="white"/>
<path d="M69.9944 31.7272L65.0841 28.3901L44.2731 59.0366L31.4066 49.9047L27.9688 54.7437L45.7813 67.3847L69.9944 31.7272Z" fill="white"/>
</svg>
