<svg width="106" height="62" viewBox="0 0 106 62" fill="none" xmlns="http://www.w3.org/2000/svg">
<path d="M94.3506 43.1792C94.3506 43.1792 102.921 51.6433 105.041 55.56C105.082 55.6165 105.114 55.6791 105.136 55.7455C106 57.1924 106.212 58.3266 105.788 59.164C105.072 60.5473 102.65 61.2416 101.829 61.2999H86.6815C85.6268 61.2999 83.4326 61.0243 80.7614 59.1799C78.7209 57.7542 76.691 55.4063 74.7247 53.1114C71.7885 49.7035 69.2498 46.7461 66.6793 46.7461C66.3546 46.7454 66.0322 46.7992 65.7253 46.9051C63.7802 47.5199 61.3104 50.2918 61.3104 57.6747C61.3104 59.9855 59.4872 61.2999 58.2099 61.2999H51.2722C48.9084 61.2999 36.6018 60.4731 25.6891 48.9668C12.3172 34.8794 0.307389 6.61981 0.190789 6.37071C-0.556511 4.54221 1.01229 3.54581 2.70829 3.54581H18.0041C20.0552 3.54581 20.723 4.78601 21.1894 5.89901C21.73 7.17631 23.7334 12.2855 27.0194 18.0254C32.3406 27.364 35.6107 31.1641 38.2236 31.1641C38.7145 31.1655 39.1971 31.0376 39.6228 30.7931C43.036 28.9169 42.4 16.7269 42.241 14.2147C42.241 13.7271 42.2357 8.77161 40.4867 6.37601C39.2359 4.65881 37.1053 3.99101 35.8174 3.74721C36.1619 3.24901 36.8933 2.48581 37.8314 2.03531C40.1687 0.869306 44.3928 0.699707 48.5851 0.699707H50.9118C55.4592 0.763307 56.6358 1.05481 58.2894 1.47351C61.6178 2.26851 61.6814 4.42561 61.3899 11.7714C61.3051 13.8702 61.215 16.234 61.215 19.0165C61.215 19.6101 61.1885 20.2726 61.1885 20.9457C61.0878 24.714 60.9553 28.9593 63.6159 30.703C63.961 30.918 64.3594 31.0318 64.766 31.0316C65.6882 31.0316 68.4495 31.0316 75.9384 18.1791C79.2244 12.5028 81.7684 5.80891 81.9433 5.30541C82.0917 5.02451 82.5369 4.23481 83.0775 3.91681C83.4621 3.7122 83.8928 3.60999 84.3283 3.62001H102.322C104.283 3.62001 105.613 3.91681 105.873 4.65881C106.307 5.86191 105.788 9.5348 97.573 20.6436C96.1897 22.4933 94.976 24.0939 93.9107 25.4931C86.4642 35.2663 86.4642 35.7592 94.3506 43.1792V43.1792Z" fill="#C79756"/>
</svg>
