<svg width="60" height="60" viewBox="0 0 60 60" fill="none" xmlns="http://www.w3.org/2000/svg">
<g clip-path="url(#clip0_52_15)">
<path d="M30 0C21.85 0 20.8325 0.0375 17.6325 0.18C14.4375 0.33 12.2625 0.8325 10.35 1.575C8.3775 2.34 6.7025 3.3675 5.035 5.035C3.3675 6.7025 2.3375 8.375 1.575 10.35C0.8325 12.2625 0.3275 14.4375 0.18 17.6325C0.03 20.8325 0 21.85 0 30C0 38.15 0.0375 39.1675 0.18 42.3675C0.33 45.56 0.8325 47.7375 1.575 49.65C2.34 51.62 3.3675 53.2975 5.035 54.965C6.7025 56.63 8.375 57.6625 10.35 58.425C12.265 59.165 14.44 59.6725 17.6325 59.82C20.8325 59.97 21.85 60 30 60C38.15 60 39.1675 59.9625 42.3675 59.82C45.56 59.67 47.7375 59.165 49.65 58.425C51.62 57.66 53.2975 56.63 54.965 54.965C56.63 53.2975 57.6625 51.6275 58.425 49.65C59.165 47.7375 59.6725 45.56 59.82 42.3675C59.97 39.1675 60 38.15 60 30C60 21.85 59.9625 20.8325 59.82 17.6325C59.67 14.44 59.165 12.26 58.425 10.35C57.66 8.3775 56.63 6.7025 54.965 5.035C53.2975 3.3675 51.6275 2.3375 49.65 1.575C47.7375 0.8325 45.56 0.3275 42.3675 0.18C39.1675 0.03 38.15 0 30 0ZM30 5.4C38.0075 5.4 38.9625 5.44 42.125 5.5775C45.05 5.715 46.6375 6.2 47.6925 6.615C49.0975 7.1575 50.0925 7.8075 51.1475 8.855C52.195 9.905 52.845 10.9025 53.3875 12.3075C53.7975 13.3625 54.2875 14.95 54.42 17.875C54.5625 21.04 54.595 21.99 54.595 30C54.595 38.01 54.5575 38.9625 54.41 42.125C54.2575 45.05 53.77 46.6375 53.3575 47.6925C52.7975 49.0975 52.16 50.0925 51.11 51.1475C50.0625 52.195 49.05 52.845 47.66 53.3875C46.61 53.7975 44.9975 54.2875 42.0725 54.42C38.8875 54.5625 37.95 54.595 29.925 54.595C21.8975 54.595 20.96 54.5575 17.7775 54.41C14.85 54.2575 13.2375 53.77 12.1875 53.3575C10.765 52.7975 9.7875 52.16 8.74 51.11C7.6875 50.0625 7.015 49.05 6.49 47.66C6.0775 46.61 5.5925 44.9975 5.44 42.0725C5.3275 38.9225 5.2875 37.95 5.2875 29.9625C5.2875 21.9725 5.3275 20.9975 5.44 17.81C5.5925 14.885 6.0775 13.275 6.49 12.225C7.015 10.8 7.6875 9.825 8.74 8.7725C9.7875 7.725 10.765 7.05 12.1875 6.5275C13.2375 6.1125 14.815 5.625 17.74 5.475C20.9275 5.3625 21.865 5.325 29.8875 5.325L30 5.4ZM30 14.595C21.4875 14.595 14.595 21.495 14.595 30C14.595 38.5125 21.495 45.405 30 45.405C38.5125 45.405 45.405 38.505 45.405 30C45.405 21.4875 38.505 14.595 30 14.595ZM30 40C24.475 40 20 35.525 20 30C20 24.475 24.475 20 30 20C35.525 20 40 24.475 40 30C40 35.525 35.525 40 30 40ZM49.615 13.9875C49.615 15.975 48 17.5875 46.015 17.5875C44.0275 17.5875 42.415 15.9725 42.415 13.9875C42.415 12.0025 44.03 10.39 46.015 10.39C47.9975 10.3875 49.615 12.0025 49.615 13.9875Z" fill="#C79756"/>
</g>
<defs>
<clipPath id="clip0_52_15">
<rect width="60" height="60" fill="white"/>
</clipPath>
</defs>
</svg>
