<svg width="95" height="95" viewBox="0 0 95 95" fill="none" xmlns="http://www.w3.org/2000/svg">
<g clip-path="url(#clip0_37_174)">
<path d="M47.4993 0C21.3082 0 0.000976562 21.3084 0.000976562 47.4994C0.000976562 73.6916 21.3082 95 47.4993 95C73.6903 95 94.9987 73.6916 94.9987 47.4994C94.9987 21.3084 73.6892 0 47.4993 0ZM47.4993 88.1326C25.0956 88.1326 6.86722 69.9043 6.86722 47.4994C6.86722 25.0946 25.0944 6.86739 47.4993 6.86739C69.9041 6.86739 88.1313 25.0946 88.1313 47.4994C88.1313 69.9043 69.9041 88.1326 47.4993 88.1326Z" fill="white"/>
<path d="M61.2435 51.8718C61.2252 51.8718 61.2092 51.8718 61.1909 51.8718L50.9333 52.0251V25.1805C50.9333 23.284 49.3962 21.7468 47.4996 21.7468C45.6031 21.7468 44.0659 23.284 44.0659 25.1805V55.5115C44.0659 55.5183 44.0682 55.5252 44.0682 55.5321C44.0682 55.5435 44.0659 55.5538 44.0659 55.563C44.0682 55.7026 44.0945 55.8342 44.1128 55.9682C44.1243 56.0517 44.1254 56.1376 44.1415 56.22C44.1724 56.3676 44.2239 56.505 44.2731 56.6435C44.2983 56.7156 44.3143 56.7911 44.344 56.8598C44.4036 57.0006 44.4837 57.1288 44.5604 57.2604C44.5959 57.3187 44.6222 57.3828 44.6599 57.4401C44.7469 57.5671 44.8511 57.6804 44.9541 57.796C44.9976 57.8441 45.0331 57.899 45.0789 57.946C45.1899 58.0558 45.3146 58.1486 45.4394 58.2436C45.4898 58.2813 45.5344 58.3271 45.5859 58.3626C45.721 58.4542 45.8686 58.5263 46.0163 58.5972C46.0678 58.6213 46.1135 58.6556 46.1662 58.6773C46.3379 58.7495 46.521 58.7998 46.7064 58.8445C46.7408 58.8525 46.7728 58.8685 46.8083 58.8754C47.0303 58.92 47.2604 58.9452 47.4962 58.9452C47.5133 58.9452 47.5317 58.9452 47.5488 58.9452L61.2928 58.7392C63.1882 58.7105 64.7024 57.1494 64.6749 55.254C64.6486 53.3757 63.116 51.8718 61.2435 51.8718Z" fill="white"/>
</g>
<defs>
<clipPath id="clip0_37_174">
<rect width="95" height="95" fill="white"/>
</clipPath>
</defs>
</svg>
