<?xml version="1.0" standalone="no"?>
<!DOCTYPE svg PUBLIC "-//W3C//DTD SVG 20010904//EN"
 "http://www.w3.org/TR/2001/REC-SVG-20010904/DTD/svg10.dtd">
<svg version="1.0" xmlns="http://www.w3.org/2000/svg"
 width="1000.000000pt" height="1000.000000pt" viewBox="0 0 1000.000000 1000.000000"
 preserveAspectRatio="xMidYMid meet">
<metadata>
Created by potrace 1.14, written by Peter Selinger 2001-2017
</metadata>
<g transform="translate(0.000000,1000.000000) scale(0.100000,-0.100000)"
fill="#000000" stroke="none">
<path d="M7158 7405 c-2 -2 -43 -6 -93 -9 -121 -8 -274 -37 -350 -66 -17 -7
-37 -13 -45 -15 -63 -13 -261 -114 -367 -187 -110 -76 -263 -230 -335 -338
-101 -151 -163 -309 -193 -490 -20 -120 -11 -374 17 -500 5 -25 12 -56 14 -70
7 -36 33 -105 67 -180 17 -36 31 -68 31 -71 1 -3 26 -41 56 -85 44 -65 198
-230 252 -269 7 -5 38 -28 68 -51 78 -58 158 -104 290 -167 166 -80 208 -98
375 -161 83 -32 158 -62 167 -67 10 -5 22 -9 28 -9 5 0 33 -11 62 -23 29 -13
76 -32 103 -41 28 -10 64 -24 80 -31 17 -8 57 -23 90 -36 33 -12 85 -33 115
-46 30 -14 64 -29 76 -33 25 -10 143 -81 176 -107 32 -25 169 -165 194 -199
58 -79 134 -249 149 -335 3 -19 10 -52 15 -74 14 -62 5 -300 -15 -385 -70
-302 -275 -494 -595 -557 -73 -14 -126 -18 -260 -18 -210 0 -334 21 -480 82
-58 24 -207 107 -220 123 -3 3 -21 17 -40 30 -136 93 -315 301 -423 490 -87
153 -224 499 -262 660 l-6 25 -136 0 -135 1 7 -251 c4 -137 9 -295 10 -350 2
-55 6 -208 10 -340 9 -290 12 -404 16 -556 l2 -116 134 -1 133 0 70 119 c39
65 72 119 74 119 2 0 55 -27 117 -59 118 -62 223 -106 344 -146 115 -38 198
-63 230 -69 34 -7 65 -14 98 -21 12 -3 42 -8 67 -11 25 -3 72 -9 105 -14 33
-5 146 -7 250 -5 185 3 283 15 440 52 17 4 32 7 35 8 27 4 107 30 114 36 6 5
17 9 25 9 19 1 198 85 265 126 229 137 454 374 553 584 55 114 102 257 117
350 10 61 19 212 19 295 -1 343 -114 621 -342 843 -93 91 -174 147 -391 272
-116 67 -378 181 -680 297 -124 47 -229 90 -235 94 -5 5 -15 9 -22 9 -12 0
-58 21 -248 110 -229 108 -406 273 -489 454 -76 166 -92 404 -41 596 1 3 12
28 25 55 37 82 78 136 162 216 63 61 100 87 181 127 122 60 207 79 361 81 232
4 466 -64 606 -176 84 -67 152 -129 185 -169 22 -27 42 -51 45 -54 4 -3 29
-39 57 -80 115 -173 220 -420 318 -755 15 -49 30 -101 34 -115 l8 -25 134 0
134 0 -1 90 c-2 122 -17 1064 -23 1432 l-1 41 -130 0 c-143 -1 -136 2 -180
-74 -14 -24 -40 -68 -58 -99 l-34 -56 -51 31 c-60 36 -286 149 -337 169 -157
61 -271 96 -352 107 -18 3 -44 7 -58 10 -14 3 -74 7 -135 10 -60 3 -118 6
-127 8 -9 2 -18 3 -20 1z"/>
<path d="M1209 7282 c-2 -47 0 -214 3 -217 1 -2 23 -6 48 -9 96 -14 238 -50
310 -79 165 -67 201 -105 249 -257 8 -28 9 -3524 1 -3576 -28 -172 -135 -255
-373 -289 -27 -3 -59 -9 -70 -11 -12 -3 -42 -7 -67 -9 -25 -2 -63 -7 -85 -10
l-40 -6 0 -117 0 -117 1190 1 c1287 0 1276 0 1519 56 246 56 521 179 645 287
13 12 27 21 31 21 18 0 184 177 236 251 120 170 167 293 199 519 17 117 5 321
-26 445 -75 300 -323 580 -651 735 -95 44 -226 97 -260 104 -13 3 -48 12 -78
21 -30 9 -62 18 -70 20 -15 3 -223 44 -267 51 -41 7 -13 32 55 50 222 57 484
174 603 268 14 12 41 32 60 46 58 43 162 152 208 220 73 106 133 250 156 370
33 177 20 398 -34 553 -51 146 -208 343 -346 435 -100 66 -297 159 -375 177
-8 2 -31 9 -50 15 -42 13 -166 37 -235 45 -27 4 -61 9 -75 12 -14 3 -562 7
-1217 9 -1110 2 -1193 1 -1194 -14z m2019 -256 c263 -26 470 -131 578 -293
103 -156 146 -313 146 -542 0 -242 -35 -403 -123 -566 -41 -74 -56 -93 -146
-181 -107 -106 -262 -179 -438 -209 -16 -3 -43 -8 -60 -11 -16 -3 -170 -8
-341 -11 l-312 -5 0 906 1 906 26 1 c169 4 346 11 348 12 4 4 263 -1 321 -7z
m10 -2090 c294 -20 513 -109 685 -278 135 -133 220 -293 254 -480 18 -100 6
-481 -17 -543 -5 -14 -8 -25 -5 -25 8 0 -43 -168 -70 -230 -16 -36 -49 -96
-74 -135 -52 -79 -167 -205 -187 -205 -8 0 -14 -4 -14 -10 0 -5 -7 -10 -15
-10 -8 0 -15 -4 -15 -9 0 -8 -151 -89 -157 -83 -2 1 -16 -4 -33 -13 -28 -14
-129 -41 -195 -52 -16 -3 -102 -7 -190 -8 -358 -8 -571 82 -646 273 l-23 57
-2 873 -1 872 26 1 c100 2 376 11 378 12 3 4 214 -2 301 -7z"/>
</g>
</svg>
